<svg xmlns="http://www.w3.org/2000/svg" width="16.574" height="16.574" viewBox="0 0 16.574 16.574">
  <path id="Icon_awesome-question-circle" data-name="Icon awesome-question-circle" d="M17.137,8.85A8.287,8.287,0,1,1,8.85.563,8.287,8.287,0,0,1,17.137,8.85ZM9.072,3.3A4.328,4.328,0,0,0,5.177,5.433a.4.4,0,0,0,.091.543l1.16.879a.4.4,0,0,0,.557-.071c.6-.757,1.006-1.2,1.915-1.2.683,0,1.527.439,1.527,1.1,0,.5-.413.757-1.087,1.135-.786.441-1.826.989-1.826,2.361v.134a.4.4,0,0,0,.4.4H9.785a.4.4,0,0,0,.4-.4v-.045c0-.951,2.78-.991,2.78-3.564C12.966,4.773,10.956,3.3,9.072,3.3ZM8.85,11.59a1.537,1.537,0,1,0,1.537,1.537A1.539,1.539,0,0,0,8.85,11.59Z" transform="translate(-0.563 -0.563)" fill="#3fab3b"/>
</svg>
